<!-- Generated by IcoMoon.io -->
<svg version="1.1" xmlns="http://www.w3.org/2000/svg" width="16" height="16" viewBox="0 0 16 16">
<title>icon-time-watch</title>
<path d="M13.864 4.014c0.084 0.074 0.136 0.182 0.136 0.303s-0.052 0.228-0.136 0.302l-0 0-0.604 0.62c-0.087 0.078-0.203 0.126-0.33 0.126s-0.243-0.048-0.33-0.126l0 0-1.206-1.107c-0.084-0.074-0.136-0.182-0.136-0.303s0.052-0.228 0.136-0.302l0-0 0.66-0.605c0.087-0.078 0.203-0.125 0.329-0.125s0.242 0.048 0.33 0.126l-0-0 1.15 1.092zM6.504 3.082c-0.257 0-0.466-0.191-0.466-0.428v-0.726c0-0.236 0.209-0.428 0.467-0.428h2.797c0.258 0 0.467 0.192 0.467 0.428v0.726c0 0.237-0.21 0.428-0.467 0.428h-2.797zM7.84 8.934l2.986 2.86c-1.65 1.582-4.324 1.584-5.976 0.004-0.763-0.719-1.239-1.736-1.239-2.864 0-1.127 0.474-2.143 1.234-2.859l0.002-0.002c0.773-0.735 1.821-1.187 2.975-1.187 0.006 0 0.013 0 0.019 0h-0.001zM7.81 14.5c3.209 0 5.81-2.492 5.81-5.566s-2.6-5.566-5.81-5.566c-3.209 0-5.81 2.492-5.81 5.566s2.601 5.566 5.81 5.566z"></path>
</svg>
