<!-- Generated by IcoMoon.io -->
<svg version="1.1" xmlns="http://www.w3.org/2000/svg" width="16" height="16" viewBox="0 0 16 16">
<title>icon-coupon</title>
<path d="M13.453 0.667h1.213v14.667h-1.212v-1.273h-1.212v1.273h-1.212v-1.273h-1.212v1.273h-1.212v-1.273h-1.212v1.273h-1.213v-1.273h-1.211v1.273h-1.213v-1.273h-1.211v1.273h-1.213v-14.667h1.213v1.273h1.211v-1.273h1.212v1.273h1.212v-1.273h1.212v1.273h1.212v-1.273h1.213v1.273h1.211v-1.273h1.213v1.273h1.211v-1.273zM2.92 5.595h8.731v-1.315h-8.731v1.315zM2.92 8.221h8.731v-1.313h-8.731v1.315zM2.92 10.851h3.653v-1.315h-3.653v1.315z"></path>
</svg>
