<!-- Generated by IcoMoon.io -->
<svg version="1.1" xmlns="http://www.w3.org/2000/svg" width="16" height="16" viewBox="0 0 16 16">
<title>icon_tabbar_home</title>
<path d="M8.382 2.155c-0.099-0.096-0.233-0.155-0.382-0.155s-0.283 0.059-0.382 0.155l0-0-6.127 6.227c-0.098 0.1-0.158 0.237-0.158 0.389 0 0.076 0.015 0.148 0.043 0.214l-0.001-0.004c0.082 0.2 0.274 0.338 0.499 0.339h0.535v4.592c0 0.417 0.339 0.755 0.755 0.755h2.685c0.211 0 0.381-0.167 0.381-0.37v-3.087c0-0.303 0.242-0.549 0.54-0.549h2.458c0.299 0 0.54 0.246 0.54 0.549v3.087c0 0.205 0.165 0.37 0.381 0.37h2.687c0.417 0 0.755-0.335 0.755-0.755v-4.592h0.535c0.225-0.001 0.418-0.139 0.499-0.336l0.001-0.004c0.026-0.062 0.041-0.134 0.041-0.21 0-0.152-0.061-0.289-0.159-0.389l0 0-6.126-6.227z"></path>
</svg>
